<?xml version="1.0" encoding="UTF-8" standalone="no"?>
<svg
   xmlns:dc="http://purl.org/dc/elements/1.1/"
   xmlns:cc="http://creativecommons.org/ns#"
   xmlns:rdf="http://www.w3.org/1999/02/22-rdf-syntax-ns#"
   xmlns:svg="http://www.w3.org/2000/svg"
   xmlns="http://www.w3.org/2000/svg"
   xmlns:sodipodi="http://sodipodi.sourceforge.net/DTD/sodipodi-0.dtd"
   xmlns:inkscape="http://www.inkscape.org/namespaces/inkscape"
   enable-background="new 0 0 24 24"
   height="24px"
   id="Layer_1"
   version="1.1"
   viewBox="0 0 24 24"
   width="24px"
   xml:space="preserve"
   inkscape:version="0.48.4 r9939"
   sodipodi:docname="1425732004_new-24.svg"
   inkscape:export-filename="D:\SCHOOL\AY1415 SEM 2\CS3240\lab 1 asg\BootstrapLAB_A0114088H\img\icons\1425732004_new-24.png"
   inkscape:export-xdpi="1636.3636"
   inkscape:export-ydpi="1636.3636"><metadata
     id="metadata9"><rdf:RDF><cc:Work
         rdf:about=""><dc:format>image/svg+xml</dc:format><dc:type
           rdf:resource="http://purl.org/dc/dcmitype/StillImage" /><dc:title></dc:title></cc:Work></rdf:RDF></metadata><defs
     id="defs7" /><sodipodi:namedview
     pagecolor="#ffffff"
     bordercolor="#666666"
     borderopacity="1"
     objecttolerance="10"
     gridtolerance="10"
     guidetolerance="10"
     inkscape:pageopacity="0"
     inkscape:pageshadow="2"
     inkscape:window-width="944"
     inkscape:window-height="636"
     id="namedview5"
     showgrid="false"
     inkscape:zoom="9.8333333"
     inkscape:cx="12"
     inkscape:cy="12"
     inkscape:window-x="165"
     inkscape:window-y="35"
     inkscape:window-maximized="0"
     inkscape:current-layer="Layer_1" /><path
     d="M21.635,6.366c-0.467-0.772-1.043-1.528-1.748-2.229c-0.713-0.708-1.482-1.288-2.269-1.754L19,1C19,1,21,1,22,2S23,5,23,5  L21.635,6.366z M10,18H6v-4l0.48-0.48c0.813,0.385,1.621,0.926,2.348,1.652c0.728,0.729,1.268,1.535,1.652,2.348L10,18z M20.48,7.52  l-8.846,8.845c-0.467-0.771-1.043-1.529-1.748-2.229c-0.712-0.709-1.482-1.288-2.269-1.754L16.48,3.52  c0.813,0.383,1.621,0.924,2.348,1.651C19.557,5.899,20.097,6.707,20.48,7.52z M4,4v16h16v-7l3-3.038V21c0,1.105-0.896,2-2,2H3  c-1.104,0-2-0.895-2-2V3c0-1.104,0.896-2,2-2h11.01l-3.001,3H4z"
     id="path3"
     style="fill:#4698cc;fill-opacity:1" /></svg>