<?xml version="1.0" encoding="UTF-8" standalone="no"?>
<svg
   xmlns:dc="http://purl.org/dc/elements/1.1/"
   xmlns:cc="http://creativecommons.org/ns#"
   xmlns:rdf="http://www.w3.org/1999/02/22-rdf-syntax-ns#"
   xmlns:svg="http://www.w3.org/2000/svg"
   xmlns="http://www.w3.org/2000/svg"
   xmlns:sodipodi="http://sodipodi.sourceforge.net/DTD/sodipodi-0.dtd"
   xmlns:inkscape="http://www.inkscape.org/namespaces/inkscape"
   enable-background="new 0 0 24 24"
   height="24px"
   id="Layer_1"
   version="1.1"
   viewBox="0 0 24 24"
   width="24px"
   xml:space="preserve"
   inkscape:version="0.48.4 r9939"
   sodipodi:docname="1425732477_calendar-24.svg"
   inkscape:export-filename="D:\SCHOOL\AY1415 SEM 2\CS3240\lab 1 asg\BootstrapLAB_A0114088H\img\icons\1425732477_calendar-24.png"
   inkscape:export-xdpi="1499.9375"
   inkscape:export-ydpi="1499.9375"><metadata
     id="metadata9"><rdf:RDF><cc:Work
         rdf:about=""><dc:format>image/svg+xml</dc:format><dc:type
           rdf:resource="http://purl.org/dc/dcmitype/StillImage" /><dc:title></dc:title></cc:Work></rdf:RDF></metadata><defs
     id="defs7" /><sodipodi:namedview
     pagecolor="#ffffff"
     bordercolor="#666666"
     borderopacity="1"
     objecttolerance="10"
     gridtolerance="10"
     guidetolerance="10"
     inkscape:pageopacity="0"
     inkscape:pageshadow="2"
     inkscape:window-width="1366"
     inkscape:window-height="706"
     id="namedview5"
     showgrid="false"
     inkscape:zoom="9.8333333"
     inkscape:cx="12"
     inkscape:cy="12"
     inkscape:window-x="-8"
     inkscape:window-y="-8"
     inkscape:window-maximized="1"
     inkscape:current-layer="Layer_1" /><path
     clip-rule="evenodd"
     d="M0,6.001C0,4.896,0.896,4,2,4h2V2c0-0.552,0.447-2,1-2h2c0.553,0,1,1.448,1,2v2h8  V2c0-0.552,0.447-2,1-2h2c0.553,0,1,1.448,1,2v2h2c1.104,0,2,0.896,2,2.001V8H0V6.001z M24,10.001V23c0,0-0.521,1.001-2,1.001H2  C0.427,24.001,0,23,0,23V10.001H24z"
     fill-rule="evenodd"
     id="path3"
     style="fill:#4698cc;fill-opacity:1" /></svg>